<svg width="343" height="30" viewBox="0 0 343 30" fill="none" xmlns="http://www.w3.org/2000/svg">
<rect width="343" height="30" fill="#F5F5F5"/>
<path d="M342.757 5.4812C323.027 5.4812 303.298 5.35393 283.582 5.52362C271.527 5.63675 259.472 6.08922 247.431 6.59828C236.363 7.06492 225.296 7.6164 214.243 8.4507C196.317 9.8082 178.363 11.0385 160.509 12.9899C112.688 18.1936 64.925 23.7509 17.1332 29.1385C13.6683 29.5344 10.0317 30.4394 6.76729 29.7466C4.31899 29.2234 1.32661 26.9326 0.395972 24.6983C-1.0501 21.2197 1.67031 19.5228 5.22106 19.1976C25.4088 17.3028 45.5965 15.309 65.7985 13.4424C103.468 9.94965 141.123 6.34375 178.821 3.14796C195.487 1.73389 212.238 0.871339 228.961 0.432979C234.616 0.291572 240.272 0.178464 245.941 0.00877656C250.809 -0.13263 255.864 1.49353 260.531 0.659234C267.489 -0.585143 274.233 2.18642 280.819 1.05517C289.667 -0.457879 298.157 1.76219 306.82 1.74805C315.926 1.71977 325.046 1.74807 334.152 2.03088C337.115 2.12986 340.051 3.09143 343 3.6712C342.928 4.26511 342.857 4.87315 342.785 5.4812H342.757Z" fill="#16C552"/>
</svg>
