<?xml version="1.0" encoding="UTF-8" standalone="no"?>
<svg
   xmlns:dc="http://purl.org/dc/elements/1.1/"
   xmlns:cc="http://creativecommons.org/ns#"
   xmlns:rdf="http://www.w3.org/1999/02/22-rdf-syntax-ns#"
   xmlns:svg="http://www.w3.org/2000/svg"
   xmlns="http://www.w3.org/2000/svg"
   xmlns:sodipodi="http://sodipodi.sourceforge.net/DTD/sodipodi-0.dtd"
   xmlns:inkscape="http://www.inkscape.org/namespaces/inkscape"
   style="isolation:isolate"
   viewBox="0 0 1110 1280"
   width="1110pt"
   height="1280pt"
   version="1.1"
   id="svg354"
   sodipodi:docname="flask.svg"
   inkscape:version="1.0.1 (c497b03c, 2020-09-10)">
  <metadata
     id="metadata358">
    <rdf:RDF>
      <cc:Work
         rdf:about="">
        <dc:format>image/svg+xml</dc:format>
        <dc:type
           rdf:resource="http://purl.org/dc/dcmitype/StillImage" />
      </cc:Work>
    </rdf:RDF>
  </metadata>
  <sodipodi:namedview
     pagecolor="#ffffff"
     bordercolor="#666666"
     borderopacity="1"
     objecttolerance="10"
     gridtolerance="10"
     guidetolerance="10"
     inkscape:pageopacity="0"
     inkscape:pageshadow="2"
     inkscape:window-width="1199"
     inkscape:window-height="769"
     id="namedview356"
     showgrid="false"
     inkscape:zoom="0.43066406"
     inkscape:cx="708.65306"
     inkscape:cy="1438.4762"
     inkscape:window-x="2124"
     inkscape:window-y="136"
     inkscape:window-maximized="0"
     inkscape:current-layer="svg354"
     inkscape:document-rotation="0" />
  <defs
     id="defs270">
    <clipPath
       id="_clipPath_N1qCNidVSW0YPI4we8BfCWh8WKhpr5I9">
      <rect
         width="1110"
         height="1280"
         id="rect267" />
    </clipPath>
  </defs>
  <path
     d="m 284.078,40.939 v 39.5 l 26.8,0.2 26.7,0.3 0.3,198.2 0.2,198.2 -7.2,8.8 c -4,4.8 -67,81.4 -140,170 -73,88.7 -135.9,165.5 -139.7,170.6 -23.3,31.4 -39.5,69.2 -46.6,108.7 -4.8,26.2 -6.3,48.6 -4.6,64.5 4.7,42.2 9.4,63.2 20.8,92 27.5,69.9 77.7,125.6 142.3,157.9 33.4,16.7 65.3,25.8 104,29.6 12.2,1.2 551.6,1.8 564.5,0.6 26.5,-2.4 47.6,-6.2 67.5,-12.3 90.8,-27.4 163,-96.5 193.3,-185.3 11.9,-34.8 18.6,-81.4 15.8,-110 -3.3,-32.5 -8.1,-56.2 -16.1,-79.5 -5.3,-15.4 -18.9,-43.1 -27.7,-56.5 -8.8,-13.5 -7.5,-11.8 -162.2,-199.5 l -131,-159 0.2,-198.5 0.2,-198.5 26.8,-0.3 26.7,-0.2 v -39.5 -39.5 h -270.5 -270.5 z m 402.5,65 0.3,161.8 0.2,161.9 c -0.54001,-77.42927 -0.0217,2.25811 0,39.7 0,19.2 0.4,36 0.9,37.3 0.5,1.3 23.5,29.7 51,63.1 27.6,33.4 50.1,61.1 50.1,61.6 -1.98515,0.79949 1.77457,5.3501 3.9,5.1 0.69516,-0.0822 135.3,162.6 146.4,176.8 1.7,2.2 0.1,2.3 -4.4,0.2 -9.2,-4.1 -20.6,-1.8 -26.6,5.4 -11.1,13.5 -3.6,32.8 14,36.1 6,1.1 14.1,-2 18.6,-7.1 5.8,-6.6 7.2,-14 4.5,-23.3 -0.5,-1.8 -0.4,-2.3 0.7,-1.9 2.3,0.7 40.4,47.3 48,58.7 20.5,30.4 30.9,65.8 30.9,105.1 0,23.7 -3.1,43.2 -10.6,66 -26.4,80.4 -94.1,133.6 -182.6,143.5 -14.9,1.7 -84.3,2.1 -86.7,0.6 -1.1,-0.7 -0.7,-1.2 1.5,-2.4 9.5,-4.9 13,-15.5 8.1,-24.2 -7.3,-12.9 -26.7,-10.3 -30.7,4.1 -2.2,7.6 2,16.5 9,19.4 1.6,0.7 3,1.6 3,2 0,1.6 -5.3,2 -29,2 -24.5,0 -29.8,-0.7 -25.5,-3.2 8.4,-4.9 9.7,-14.5 2.8,-21 -1.9,-1.8 -3.6,-2.3 -7.8,-2.3 -5.9,0 -9.3,2.2 -11.5,7.6 -2.3,5.5 1.4,13.9 7,16.2 6.5,2.5 -8.6,2.7 -200.5,2.4 -185.7,-0.2 -199.7,-0.4 -209.4,-2 -43.6,-7.5 -80.4,-25.5 -111.1,-54.4 -43.7,-41.1 -70.4,-105.4 -67.6,-162.8 0.8,-16.5 1.9,-24 5.6,-39 87.23263,-163.64335 220.62849,-296.21669 336,-432 -0.65504,-81.10432 0.72183,-288.77207 -2.8,-400.3 164.18667,-3.22021 113.58015,0.19962 264.3,-0.7 z"
     fill="#000000"
     id="path272"
     clip-path="url(#_clipPath_N1qCNidVSW0YPI4we8BfCWh8WKhpr5I9)"
     transform="translate(-6.9659865,-6.9659865)"
     sodipodi:nodetypes="ccccccccccccsccccccccccccccccccccccscccccccccccscccccccssccscccccccccc" />
  <path
     d="m 474,550.7 c -5,1.9 -7.6,7 -5.9,12 1.5,4.5 5.8,6.7 11.5,5.8 4.4,-0.6 4.4,-0.6 4.4,2.4 0,5.7 7.4,7.9 10,3 1.3,-2.4 2.5,-2.4 5.2,0.1 4.3,4 10.8,1 10.8,-4.8 0,-3.6 -1.8,-5.9 -5.3,-6.8 -2.3,-0.5 -3.3,-0.1 -6.1,2.9 -3.1,3.3 -3.4,3.4 -4.9,1.9 -1,-0.9 -3.2,-1.6 -5.2,-1.5 -3.5,0.1 -3.5,0.1 -2.9,-3.6 0.8,-5 -1.6,-9.5 -5.7,-11 -3.5,-1.2 -3.7,-1.2 -5.9,-0.4 z"
     fill="#0000ff"
     id="path274"
     clip-path="url(#_clipPath_N1qCNidVSW0YPI4we8BfCWh8WKhpr5I9)" />
  <path
     d="m 625.264,568.237 c -0.9,0.5 -2.4,2.4 -3.3,4.1 l -1.6,3 -3.3,-3.2 c -6.4,-6.2 -17.1,-5 -21.5,2.3 -2.2,3.5 -2.6,10.6 -0.9,13.9 1.7,3.3 0.3,3.3 -5.8,0 -11.3,-5.9 -22.8,-7.9 -34.3,-5.8 -4.1,0.7 -7.7,1.2 -7.9,1 -0.2,-0.2 0.1,-1.5 0.7,-2.9 1.7,-3.8 1.5,-5.3 -1.3,-8 -2.9,-3 -6.8,-3.2 -9.6,-0.4 -3.1,3.1 -2.2,7.8 1.8,10.4 1.8,1.1 3.2,2.3 3.3,2.7 0,0.4 -2.5,2.3 -5.5,4.3 -15.7,10.5 -24.4,27.8 -23.2,46 0.3,4.4 1.3,10.2 2.2,12.8 1,2.6 1.4,5.1 1.1,5.4 -0.3,0.4 -1.9,-0.3 -3.5,-1.5 -1.6,-1.2 -5,-2.6 -7.5,-3.3 -2.5,-0.6 -4.6,-1.4 -4.6,-1.6 0,-0.3 0.9,-1.6 2,-3 4,-5.2 1.1,-11.3 -5.3,-11.3 -7.1,0 -9.8,9.3 -3.7,12.8 1.6,0.9 3,2 3,2.4 0,1.1 -6.4,4.7 -7.3,4.1 -0.5,-0.3 -0.6,-1.4 -0.4,-2.5 0.9,-3.1 -1.3,-7.7 -4.4,-9.3 -3.5,-1.9 -5.3,-1.9 -8.8,0 -5.2,2.7 -5.9,9.8 -1.4,14.7 1.6,1.8 1,3.8 -1.2,3.8 -2.5,0 -4.8,4.7 -4.1,8.4 l 0.7,3.4 -4.8,-1.4 c -5.8,-1.7 -10.5,-1 -14.4,2.3 -6.4,5.4 -7.9,14.1 -3.4,20.7 1.4,2 2.5,3.9 2.5,4.1 0,0.3 -2.1,0.5 -4.6,0.5 -6.1,0 -10.9,2.4 -13.6,6.7 -4.2,6.9 -2,16.2 5,20.5 3.9,2.4 3.5,3.3 -2,4.2 -6.5,1 -14.1,5.1 -18.8,10.2 -13.8,15 -11.4,38.3 5.3,50.2 l 5.2,3.7 -12.5,0.6 c -14.7,0.7 -20.1,2.5 -30.1,9.8 -10.8,7.9 -18.3,21.4 -19.6,34.8 -0.6,6.6 -1.9,8.8 -3.5,5.9 -1.1,-2 -6,-4.6 -8.8,-4.6 -2.4,0 -2.6,-1.7 -0.4,-4.1 0.9,-1 1.8,-3.7 2.1,-6.1 0.8,-8.5 -6.9,-15.3 -14.8,-12.9 -11.3,3.4 -12.1,18.2 -1.3,22.7 1.9,0.8 4.5,1.4 5.9,1.4 2.9,0 3.1,0.7 1,3.4 -2,2.6 -1.9,8.1 0.1,11.1 0.9,1.3 3.1,2.9 4.9,3.5 4.3,1.4 9.4,-0.6 11.4,-4.4 0.8,-1.4 1.9,-2.5 2.4,-2.3 0.5,0.1 1.7,2.8 2.7,5.9 1,3.2 3.2,8.2 4.9,11.4 1.8,3.1 3,5.8 2.8,6 -0.2,0.2 -3.2,-1 -6.7,-2.8 -5.8,-3 -7.1,-3.3 -15.4,-3.3 -7.2,0 -10.1,0.5 -13.8,2.2 -6.1,2.8 -12.7,9.5 -15.7,15.8 -2.1,4.5 -2.5,4.8 -3.5,3.1 -4,-7 -10.5,-8.8 -15.1,-4.1 -3.2,3.1 -3.2,7.5 -0.1,11.1 3.1,3.7 8.4,3.8 12,0.5 3,-2.8 3.2,-2.4 3.9,6.6 1,12 9.2,23.1 20.4,27.3 7.4,2.8 19.3,2.4 26.4,-0.9 4.9,-2.2 11.7,-8.8 14.3,-14 1.8,-3.5 3.4,-4 4.3,-1.4 2.2,6.4 9.4,8.3 13.8,3.8 5.1,-5.1 1.5,-13.5 -5.8,-13.5 -1.9,0 -4,0.7 -4.7,1.5 -2.8,3.3 -3.7,1.7 -4.2,-7.3 -0.3,-6.4 -1,-9.8 -2.7,-13 -2.4,-4.7 -2.1,-6.4 0.7,-4.4 18.5,13.1 37.8,14.8 56.4,5 13.6,-7.2 23.9,-22.1 25.4,-36.6 0.3,-3.1 0.7,-6.7 1,-8 l 0.5,-2.3 3.5,3 c 4.3,3.9 8.2,4 12.3,0.5 2.5,-2.1 3.1,-3.3 3.1,-6.5 0,-5.5 -3.4,-8.9 -8.9,-8.9 -3.4,0 -4.5,0.5 -6.8,3.5 -1.5,1.9 -3.1,3.5 -3.5,3.5 -0.3,0 -1.5,-3 -2.7,-6.8 -3.6,-11.8 -10.2,-20.5 -21.4,-27.9 l -7.2,-4.8 4,-0.2 c 12.7,-0.8 20.6,-4.3 27.8,-12.3 5.8,-6.4 8.2,-13.2 8.1,-22.6 -0.2,-14.9 -9.8,-26.8 -25.6,-31.8 -2.8,-0.9 -2.1,-2.1 2.3,-4 4.3,-1.9 7.5,-6.1 8.5,-11.2 0.5,-2.8 -0.5,-6.2 -4.4,-13.7 -0.2,-0.4 2.2,-0.7 5.3,-0.7 7.3,0 11.6,-2.5 14.4,-8.4 2.6,-5.3 2.6,-7.9 0.1,-13.5 -2.6,-5.6 -2.5,-6 1,-5.9 5.9,0.2 8.8,-5.5 5.4,-10.6 -1.7,-2.7 -1.4,-3.1 3.3,-4 l 3.2,-0.7 -0.6,7.3 c -0.4,6.5 -0.3,7.7 1.8,10.7 4.1,5.9 7.3,7.6 14.4,7.6 7.1,0 10.3,-1.7 14.3,-7.5 1.6,-2.4 2.2,-4.7 2.2,-8.6 0,-3 0.4,-5.4 0.8,-5.4 0.5,0 3,2.5 5.7,5.6 16.4,19.1 45,23.2 66.1,9.6 15.4,-10 24.3,-27.6 23.1,-45.7 -0.8,-12.2 -3.5,-18.8 -13.4,-32.4 l -1.7,-2.3 5.1,0.7 c 9.2,1.2 15.7,-3.8 17,-13 0.5,-3.7 0.9,-4.5 2.2,-3.9 4,1.7 6.9,1.6 9,-0.5 2.9,-2.9 2.7,-6.5 -0.5,-9 -3,-2.3 -4.1,-2.5 -6.7,-1 z"
     fill="#0000ff"
     id="path276"
     clip-path="url(#_clipPath_N1qCNidVSW0YPI4we8BfCWh8WKhpr5I9)" />
  <path
     d="m 794.8,667 c -2.6,2.7 -3,3.6 -2.5,6.8 0.4,2.5 1.7,4.6 3.9,6.5 2.7,2.3 3,2.9 1.8,3.7 -0.8,0.5 -2.1,1 -2.8,1 -5.4,0 -16.8,9.6 -21,17.5 -2.4,4.4 -2.7,6.1 -2.7,14.5 0,7.8 0.4,10.3 2.3,14.1 3.6,7.4 8.7,12.5 16,16.1 6,3 7.5,3.3 14.7,3.2 9,-0.2 13.3,-1.6 20.8,-7.1 2.6,-2 5,-3.3 5.2,-3.1 0.3,0.2 0,2 -0.5,3.9 -4.3,14.8 5.9,28.9 20.8,28.9 12.9,0 22.2,-9.2 22.2,-22 0,-9.7 -5.9,-18.2 -14.5,-21 -5.9,-1.9 -14.6,-0.9 -19.5,2.4 -2.3,1.5 -4.4,2.5 -4.7,2.2 -0.3,-0.3 0.2,-2.3 1.1,-4.6 7.2,-17.9 -2.8,-39.3 -20.8,-44.5 -2.8,-0.8 -6.4,-1.7 -7.9,-2 l -2.8,-0.6 3,-3.5 c 4,-4.5 4.2,-9.1 0.5,-12.8 -3.8,-3.7 -8.6,-3.6 -12.6,0.4 z"
     fill="#0000ff"
     id="path278"
     clip-path="url(#_clipPath_N1qCNidVSW0YPI4we8BfCWh8WKhpr5I9)" />
  <path
     d="m 586.9,677.1 c -1.6,1.6 -2,2.9 -1.5,5 0.5,2.9 0.5,2.9 -4.2,2.9 -7.7,0 -11.9,5.5 -9.1,12.1 1.8,4.5 6.7,6.4 11.3,4.5 4.6,-1.9 6,-4.7 5.2,-10.7 -0.7,-4.9 -0.6,-4.9 2.2,-4.9 1.5,0 3.3,-0.5 4,-1.2 1.8,-1.8 1.4,-6.3 -0.6,-8.1 -2.5,-2.3 -4.8,-2.1 -7.3,0.4 z"
     fill="#0000ff"
     id="path280"
     clip-path="url(#_clipPath_N1qCNidVSW0YPI4we8BfCWh8WKhpr5I9)" />
  <path
     d="m 701.6,705.2 c -2.4,3.4 -1.9,6.6 1.5,9.7 3.4,3.1 3.3,3.2 -2.6,5.1 -15,4.8 -27.2,16.6 -32.6,31.6 -3,8 -3.2,23.5 -0.5,31.4 10.1,29.9 43.2,43.6 71,29.5 30.3,-15.3 36.1,-57.4 11.2,-81.4 -2,-1.9 -3.6,-3.8 -3.6,-4.2 0,-0.3 1.8,-0.9 3.9,-1.3 7.8,-1.2 10.6,-9.2 5.2,-14.7 -7.6,-7.5 -18,0.3 -14.1,10.5 1.2,3.2 0.8,3.2 -7,0 -4.1,-1.7 -9.1,-2.8 -14,-3.1 -10.3,-0.6 -10.6,-0.8 -8.1,-3.9 4.2,-5.3 1.6,-11.4 -4.9,-11.4 -2.9,0 -4.3,0.6 -5.4,2.2 z"
     fill="#0000ff"
     id="path282"
     clip-path="url(#_clipPath_N1qCNidVSW0YPI4we8BfCWh8WKhpr5I9)" />
  <path
     d="m 616.5,756.2 c -1.6,0.6 -4.7,2.7 -6.8,4.6 l -3.7,3.6 -2.8,-3.3 c -2.3,-2.8 -3.3,-3.3 -5.5,-2.7 -3.1,0.8 -5.1,3.9 -4.3,7 0.7,2.9 5,5 7.6,3.6 3.2,-1.7 4,-1.1 4,2.8 0,5.7 3.8,12.3 8.5,14.9 10.2,5.7 22.8,-0.1 25.1,-11.5 1.5,-7.5 -2.6,-14.9 -10.1,-18.3 -4.5,-2.1 -7.6,-2.2 -12,-0.7 z"
     fill="#0000ff"
     id="path284"
     clip-path="url(#_clipPath_N1qCNidVSW0YPI4we8BfCWh8WKhpr5I9)" />
  <path
     d="m 879.8,762 c -2.6,2.7 -3,3.6 -2.5,6.8 0.4,2.2 1.7,4.6 3.2,5.9 1.4,1.2 2.5,2.4 2.5,2.7 0,0.3 -1.3,1.2 -3,2.1 -6.5,3.4 -7.5,11.3 -1.8,16 3.9,3.3 8,3.2 11.7,-0.3 4.6,-4.2 4.6,-9.9 -0.1,-14.4 -2.6,-2.3 -3,-3.2 -1.8,-3.6 0.8,-0.3 2.7,-1.8 4.2,-3.3 3.7,-3.7 3.8,-8.6 0.2,-12.3 -3.8,-3.7 -8.6,-3.6 -12.6,0.4 z"
     fill="#0000ff"
     id="path286"
     clip-path="url(#_clipPath_N1qCNidVSW0YPI4we8BfCWh8WKhpr5I9)" />
  <path
     d="m 774.6,774.6 c -3.7,3.8 -3.6,8.6 0.4,12.6 2.5,2.5 3.7,2.9 7.2,2.7 2.4,-0.2 4.2,0.1 4.1,0.7 -0.1,0.5 -1.7,3.5 -3.6,6.6 -3.1,5.2 -5.5,11.7 -7.2,19.2 l -0.6,2.8 -3.8,-4.1 c -3.1,-3.4 -4.4,-4.1 -7.5,-4.1 -4.8,0 -7.2,1.3 -9.2,5.2 -2.9,5.7 0.3,12.7 6.7,14.3 3.3,0.8 9.4,-1.6 10.9,-4.4 1.8,-3.5 2.7,-2.4 3.9,5.3 3.1,19 16.8,35 34.9,40.6 7.3,2.3 20.6,2.7 27.8,0.9 5.4,-1.4 6.2,-0.8 3.9,2.7 -2.2,3.5 -2.3,9.3 -0.1,12.6 1,1.5 3.5,3.3 5.7,4.2 2.1,0.9 3.9,1.8 3.9,2 0,0.2 -2.4,1.2 -5.2,2.2 -15.7,5.1 -26.8,14.4 -33.2,27.6 -2.1,4.3 -4.1,7.8 -4.5,7.8 -0.5,0 -1.1,-1.3 -1.4,-3 -0.4,-1.6 -2.3,-4.7 -4.2,-6.9 -4.1,-4.5 -4.4,-4.1 4.6,-5.6 5.4,-0.8 11.7,-5.9 14.1,-11.2 6.1,-13.8 -3.7,-29.3 -18.4,-29.3 -12.3,0 -20.8,8.4 -20.8,20.5 0,6.9 2.6,12.2 8,16.6 2.2,1.8 4,3.6 4,3.9 0,0.4 -1.7,1 -3.8,1.3 -12.2,2 -15.1,20 -4.1,25.9 6.2,3.3 11.5,2.3 17.7,-3.5 l 3.2,-3.1 v 6.5 c 0,16.2 5.3,29.5 15.9,39.9 10.5,10.3 21.9,15 36.6,15 17.5,0 33.2,-8.1 42.6,-21.9 1.9,-2.8 3.7,-5.1 4.2,-5.1 0.4,0 1.2,1.1 1.7,2.5 1.4,3.8 5.3,5.2 8.5,3.1 5.6,-3.7 1.7,-11.3 -5.2,-10 -3.8,0.7 -3.8,0.7 -1.8,-6 0.8,-2.8 1.7,-6.8 2,-8.9 0.6,-4 1.5,-4.6 3.5,-2.2 1.6,2 6.4,1.9 8.4,-0.1 2.1,-2.1 2,-5.7 -0.2,-7.7 -2.5,-2.3 -5.5,-2.1 -7.7,0.3 -2.6,2.8 -3.3,2.5 -4,-1.8 -1.2,-8.1 -4.8,-17.6 -9.1,-23.8 -2.5,-3.7 -4.4,-6.8 -4.2,-7 0.2,-0.1 2.4,0.4 4.8,1.3 6,2.2 11.1,1.1 15.9,-3.2 4.3,-3.9 5.4,-3.6 4.5,1.1 -0.3,1.7 0,5.8 0.6,9 3.3,16.4 15.6,27.2 32.3,28.2 7.8,0.5 8.9,1 6.2,3.2 -2.1,1.8 -1.9,8.3 0.3,10.3 2.7,2.4 7.4,2.1 10,-0.6 3.2,-3.4 2.8,-6.4 -1.3,-10.3 l -3.6,-3.3 4.9,-2.5 c 6.6,-3.3 12.9,-9.9 16.3,-17 5,-10.3 3.5,-24.7 -3.4,-33.8 -6,-7.8 -14.2,-12.7 -23.9,-14.3 -4.6,-0.7 -4.7,-1.5 -0.8,-3.7 4.9,-2.8 7.2,-7.4 6.7,-13.6 -0.7,-9.2 -8.2,-14.4 -17.4,-12 -4.9,1.2 -7.7,4.2 -9.4,9.9 -1,3.2 -0.9,4.6 0.5,8.4 1.5,3.7 2.8,5.1 6.9,7.5 3.3,1.9 4.6,3.1 3.7,3.4 -0.8,0.3 -3.4,1.2 -5.8,2 -6.8,2.4 -12.9,7.2 -17.4,13.9 l -4.2,6.2 -1.2,-4.9 c -2.9,-11.3 -14.6,-15.9 -23.7,-9.4 -5.1,3.6 -7.2,12.3 -4.5,18.3 0.6,1.4 0.9,2.8 0.6,3.1 -0.3,0.3 -3.4,-1.3 -6.8,-3.5 -8.8,-5.7 -16.1,-8.2 -25.8,-8.8 -4.5,-0.3 -8.5,-0.9 -8.7,-1.4 -0.3,-0.4 0.8,-1.7 2.4,-2.8 4,-2.9 5.6,-8 4.1,-12.7 -1.3,-3.8 -5.9,-7.4 -9.7,-7.4 -4,0 -3.3,-1.7 2.3,-5.5 3.1,-2.2 7.4,-6 9.6,-8.7 2.3,-2.6 4.4,-4.6 4.8,-4.3 0.4,0.2 0.5,2.7 0.2,5.5 -0.6,6.8 1.8,12.8 7.2,17.8 9.9,9.2 26,6.8 32.5,-4.8 2.6,-4.6 3.8,-5 5.1,-1.6 1.1,3 5.7,6.6 8.4,6.6 3.9,0 8.4,-3.6 9.1,-7.4 0.9,-4.7 -0.1,-7.4 -3.8,-9.7 -4.3,-2.5 -7,-2.4 -10.5,0.6 -4,3.3 -5.2,3.2 -5.2,-0.8 0,-4.9 -4.5,-13.1 -8.8,-16 -7.9,-5.5 -17.9,-5.4 -25.9,0.4 -4,2.8 -4.3,2.9 -4.3,1 0,-1.1 0.4,-3.1 1,-4.6 0.5,-1.4 1.5,-5.6 2,-9.2 0.6,-3.7 1.3,-6.9 1.6,-7.2 0.2,-0.2 2,1.4 4,3.7 6.2,7.3 15.2,7.6 21.2,0.8 4.1,-4.7 4.8,-9.4 2.3,-15.1 -1.6,-3.6 -2.9,-5 -6.3,-6.5 -2.4,-1.1 -5.3,-2 -6.6,-2 -4.2,0 -10.1,3.8 -12.2,8 -1.1,2.2 -2.4,4 -2.8,4 -0.4,0 -1.7,-3.1 -2.9,-7 -2.9,-9 -7.5,-16.2 -14.8,-22.8 -10.5,-9.7 -22.6,-13.8 -37,-12.9 -9.5,0.7 -17.2,3.3 -25.4,8.8 -3.2,2.1 -6.1,3.9 -6.5,3.9 -0.3,0 -0.6,-2 -0.6,-4.5 0,-3.5 -0.6,-5.2 -2.5,-7 -3.4,-3.5 -9.3,-3.4 -12.9,0.1 z"
     fill="#0000ff"
     id="path288"
     clip-path="url(#_clipPath_N1qCNidVSW0YPI4we8BfCWh8WKhpr5I9)" />
  <path
     d="m 902.8,783.9 c -2.7,2.4 -3.3,3.6 -3.3,6.9 0,5 2.4,7.8 7.7,9.2 l 3.8,1.1 -1.5,2.9 c -2.5,4.8 0.1,9 5.5,9 2,0 5,-3.5 5,-5.8 0,-0.8 -1.4,-2.7 -3.1,-4.3 l -3,-2.8 2.2,-3.1 c 3.4,-4.6 3.1,-9.6 -0.9,-13.1 -4.2,-3.8 -8.2,-3.8 -12.4,0 z"
     fill="#000000"
     id="path290"
     clip-path="url(#_clipPath_N1qCNidVSW0YPI4we8BfCWh8WKhpr5I9)" />
  <path
     d="m 225,791 c -1.1,1.1 -2,2.7 -2,3.5 0,2 -1.3,1.9 -3.4,-0.4 -4.6,-5.1 -12.3,-5.1 -17.2,0 -2.4,2.5 -2.9,3.9 -2.9,8 0,4.4 0.4,5.4 3.2,8 5.7,5.1 11.3,5.1 16.4,0 1.8,-1.8 3.1,-4.4 3.5,-7 l 0.6,-4 4.3,0.6 c 3.8,0.5 4.5,0.3 5.9,-1.9 3.9,-5.9 -3.4,-11.8 -8.4,-6.8 z"
     fill="#000000"
     id="path292"
     clip-path="url(#_clipPath_N1qCNidVSW0YPI4we8BfCWh8WKhpr5I9)" />
  <path
     d="m 597.6,794.1 c -11.8,2.8 -26.4,14.7 -32,26.1 -2.7,5.5 -5.6,17 -5.6,22.3 0,5.3 2.9,16.8 5.6,22.3 4.1,8.3 13.2,17.4 21.9,21.9 4.1,2.1 7.5,4.1 7.5,4.5 0,0.3 -1.5,1.1 -3.4,1.8 -7.1,2.3 -10.3,9.6 -7.1,16.3 3.4,7.2 12.8,8.5 18.7,2.7 3.8,-3.9 4,-10.8 0.3,-15.6 -1.4,-1.8 -2.5,-3.5 -2.5,-3.8 0,-0.9 9.4,-0.7 10.9,0.3 1.1,0.7 1.1,1.3 -0.3,3.2 -3,4.3 -1.8,7.4 3.7,9.3 l 3.7,1.2 -2.5,3.4 c -4.9,6.6 -4.5,13.8 1.2,20.1 2,2.2 3.1,4 2.7,4 -0.5,0.1 -5.2,0 -10.4,-0.1 -7.8,-0.1 -10.9,0.3 -17.5,2.4 -4.3,1.4 -8.1,2.3 -8.4,2 -0.2,-0.2 0.5,-2.2 1.7,-4.3 4.3,-7.7 2.1,-18.1 -4.8,-22.8 -6.8,-4.7 -14.9,-4.2 -21,1.3 -6.8,6.2 -7.9,15.9 -2.6,22.9 3.7,4.8 7.4,6.5 14.6,6.5 3.3,0 6,0.3 6,0.6 0,0.3 -2.5,3.1 -5.5,6.1 -16.8,16.8 -19.1,43.4 -5.6,63.3 2.3,3.3 4.1,6.2 4.1,6.5 0,0.3 -1,0.5 -2.3,0.5 -3.1,0 -6.7,2.7 -6.7,5.1 0,3.8 1.9,5.9 5.3,5.9 4,0 5.7,-1.5 5.7,-5 0,-4 0.9,-4.2 5.7,-0.9 23.4,16.1 53.7,11 70,-11.9 l 4.7,-6.5 1.8,4.1 c 0.9,2.3 2.2,4.2 2.8,4.2 2,0 1,2.4 -2.2,5 -4.2,3.5 -4.3,8.3 -0.3,11.8 2.2,1.8 3.5,2.2 5.9,1.8 6.7,-1.3 8.6,-8.1 3.9,-13.7 -2,-2.4 -2.4,-3.4 -1.4,-3.7 2.8,-0.9 5.1,-4.3 5.1,-7.5 0,-5.4 -4.7,-8.4 -10,-6.5 -1.7,0.5 -3.3,0.8 -3.5,0.6 -0.3,-0.2 0.2,-3.8 1.1,-7.9 4.5,-20.9 -5.3,-42.7 -24,-53.6 -5.2,-3 -6.2,-4.6 -3,-5.1 4.8,-0.7 6.5,-1.4 9.3,-3.8 3.2,-2.7 5.1,-2.5 5.1,0.5 0,2.6 2,4.1 5.7,4.1 5.1,0 7.2,-5.9 3.3,-9.5 -1.5,-1.3 -2.8,-1.6 -5.6,-1 l -3.7,0.6 0.7,-4.2 c 0.4,-2.4 0.9,-4.5 1.1,-4.8 0.3,-0.2 2.3,1.3 4.5,3.3 3.7,3.3 4.5,3.6 10,3.6 3.3,0 6,0.3 6,0.6 0,0.3 -1,2 -2.2,3.7 -3,4.2 -3.1,12.4 -0.2,16.4 6.8,9.2 17.6,9.8 24.7,1.4 3.6,-4.3 4.3,-9.9 1.9,-15.4 -2.6,-6 -7.2,-8.7 -14.6,-8.7 -3.1,0 -5.6,-0.2 -5.6,-0.5 0,-0.3 0.9,-2.2 2,-4.2 5.4,-10.1 -1.3,-21.6 -12.4,-21.6 -2.4,0 -5.7,0.8 -7.5,1.9 -3.6,2.1 -7.1,7.9 -7.1,11.9 0,3.2 -1,3.2 -4.1,-0.1 -4.2,-4.5 -7.6,-5.7 -14.6,-5.1 l -6.2,0.6 0.9,-2.4 c 1.1,-3 -0.1,-7 -2.4,-7.8 -2.6,-1 -1.8,-2.5 1.7,-3.2 6.7,-1.5 13.8,-4.8 19.7,-9.1 3.3,-2.4 6.2,-4.4 6.4,-4.4 0.3,0 0.7,1.3 1.1,2.9 1.1,5.1 5.2,6.9 8.9,4 4.5,-3.6 2.6,-8.7 -3.7,-9.8 l -3.6,-0.6 3.1,-5 c 4.6,-7.4 7,-15 7.6,-23.9 1.8,-29.2 -20.5,-52.8 -49.7,-52.5 -4.7,0.1 -10.3,0.5 -12.5,1 z"
     fill="#0000ff"
     id="path294"
     clip-path="url(#_clipPath_N1qCNidVSW0YPI4we8BfCWh8WKhpr5I9)" />
  <path
     d="m 501.7,797.8 c -2,2.1 -2.7,3.8 -2.7,6.8 0,9.7 10.2,13.3 17.7,6.2 2.2,-2 2.3,-2 2.9,-0.2 2.8,8.7 9.8,11.1 15.6,5.4 2.6,-2.7 3,-3.6 2.5,-6.7 -0.8,-4.6 -3.3,-7.2 -7.8,-7.9 -2.8,-0.5 -4.1,-0.1 -6.6,2 -1.7,1.4 -3.3,2.6 -3.6,2.6 -0.3,0 -0.8,-1.3 -1.2,-2.9 -1.7,-7.9 -11.4,-10.9 -16.8,-5.3 z"
     fill="#0000ff"
     id="path296"
     clip-path="url(#_clipPath_N1qCNidVSW0YPI4we8BfCWh8WKhpr5I9)" />
  <path
     d="m 219.34,770.128 c -11.4,6.3 -15,19.9 -8.1,31 3.9,6.3 10.5,9.6 18.9,9.5 3.5,-0.1 6.3,0.2 6.3,0.6 0,0.5 -1.9,2.3 -4.2,4.1 -13.2,10.5 -20.3,29.3 -17.7,47.1 0.6,4.4 0.9,8.1 0.6,8.4 -0.3,0.4 -1.6,-0.1 -2.9,-1 -3.4,-2.4 -9.2,-2 -12.5,0.8 -2.3,2 -2.8,3.2 -2.8,7.1 0,3.9 0.5,5.1 2.8,7.1 5.9,5 14.8,2 16.3,-5.6 0.8,-3.9 1.8,-3.8 4.5,0.7 3.9,6.4 13.1,15.3 19.4,18.8 30.8,17.3 69.6,-2.1 74.7,-37.2 3.5,-24.8 -11.8,-48.5 -36.1,-55.7 -7.1,-2.1 -20.8,-2.1 -28.3,0 -3.2,0.9 -6.1,1.4 -6.4,1.1 -0.3,-0.2 0.9,-2.6 2.7,-5.1 6.7,-9.5 4.3,-23.6 -5.3,-30.2 -5.4,-3.8 -16.3,-4.5 -21.9,-1.5 z"
     fill="#0000ff"
     id="path298"
     clip-path="url(#_clipPath_N1qCNidVSW0YPI4we8BfCWh8WKhpr5I9)" />
  <path
     d="m 479,818.8 c -4.6,2.2 -7.4,7.8 -6.4,12.7 0.8,4.6 5.3,9.1 9.9,9.9 1.9,0.4 3.5,1.1 3.5,1.6 0,0.4 -2,2 -4.5,3.5 -12.1,7.1 -21.7,21.6 -23.8,35.8 -3.5,24.6 11.8,48.3 35.6,55.2 12.5,3.6 29.3,1.3 40.1,-5.5 10.4,-6.6 20.6,-20.9 22.2,-31.2 0.9,-5.3 2.1,-5.6 5.5,-1.5 1.6,1.9 4,3.8 5.4,4.1 4,1 9.4,-1.8 11.1,-5.9 1.8,-4.5 1,-7.8 -2.8,-11 -4.2,-3.5 -8.8,-3.3 -13.3,0.6 -3.9,3.5 -3.7,3.7 -5.4,-6 -3.2,-19 -17.7,-35 -36,-39.6 -3.6,-1 -7.2,-1.9 -7.9,-2.1 -0.9,-0.3 -0.7,-1.2 0.9,-3.3 2.7,-3.6 2,-7.7 -1.6,-9.3 -5.5,-2.5 -10,4.8 -5.8,9.4 1.4,1.5 1.5,2.1 0.4,2.7 -1.5,0.9 -13.2,2.3 -13.9,1.7 -0.2,-0.3 0.6,-1.7 1.7,-3.3 4.7,-6.4 3.3,-14.4 -3.2,-18.3 -4,-2.5 -7.2,-2.5 -11.7,-0.2 z"
     fill="#0000ff"
     id="path300"
     clip-path="url(#_clipPath_N1qCNidVSW0YPI4we8BfCWh8WKhpr5I9)" />
  <path
     d="m 681.8,826.5 c -5.3,3 -6.4,9.5 -2.4,14.2 2,2.3 3.2,2.8 7,2.8 2.5,0 4.6,0.3 4.6,0.6 0,0.3 -1.5,2.6 -3.3,5 -1.9,2.4 -4.2,6 -5.2,7.9 -3.1,6.2 -3.5,6.4 -6.5,2.9 -2.2,-2.7 -3.1,-3.1 -5.3,-2.5 -3.7,0.9 -5.4,4.7 -3.8,8.2 1.1,2.5 1.5,2.6 6.2,2.1 4.9,-0.6 5.1,-0.5 4.6,1.6 -4.2,17.1 1.4,36 14.2,48.7 10.4,10.2 21.9,15 36.1,15 14.3,0 26.6,-5 36.5,-14.8 27.4,-27.2 17,-72.9 -19.5,-85.9 -5,-1.7 -8.7,-2.3 -16.1,-2.3 -11,0 -17.5,1.6 -26.7,6.6 -3.4,1.9 -6.6,3.4 -7,3.4 -0.4,0 -0.6,-2 -0.4,-4.3 0.3,-3.5 -0.1,-4.9 -2,-7 -2.9,-3.3 -7.4,-4.2 -11,-2.2 z"
     fill="#0000ff"
     id="path302"
     clip-path="url(#_clipPath_N1qCNidVSW0YPI4we8BfCWh8WKhpr5I9)" />
  <path
     d="m 453.2,847.2 c -0.7,0.7 -1.2,2.7 -1.2,4.6 0,3.3 -0.1,3.4 -2.7,2.6 -1.6,-0.5 -5,-0.9 -7.6,-0.9 -4.3,0 -5.2,0.4 -8.3,3.7 -2.9,3.2 -3.4,4.5 -3.4,8.7 0,14 18.6,18.1 24.2,5.3 1.7,-3.8 1.8,-5.1 0.9,-8.7 -1.4,-5.7 -1.5,-5.5 1.7,-5.5 5.4,0 8.1,-6 4.4,-9.3 -2.2,-2 -6.3,-2.2 -8,-0.5 z"
     fill="#0000ff"
     id="path304"
     clip-path="url(#_clipPath_N1qCNidVSW0YPI4we8BfCWh8WKhpr5I9)" />
  <path
     d="m 277.4,899.1 c -5,1.2 -11.8,6.8 -14.4,12 -2.7,5.2 -2.7,14.6 0,19.9 1.1,2.1 4,5.6 6.5,7.7 2.5,2 4.5,4 4.5,4.3 0,0.3 -1.4,1.3 -3.2,2.3 -3.2,1.8 -4.7,1.2 -4.8,-2 0,-0.6 -1.2,-2.5 -2.6,-4.2 -6.7,-8 -19.4,-2.8 -19.4,8 0,5.4 5.3,9.9 11.7,9.9 4,0 5,-0.5 8.1,-3.7 2.2,-2.4 3.7,-3.3 4,-2.5 1.2,3.8 7.3,5.7 10,3 1.5,-1.5 1.6,-5.3 0.2,-7.9 -0.6,-1 -0.7,-1.9 -0.3,-1.9 13.6,-0.7 19.1,-3.1 24,-10.3 11.7,-17.3 -3.8,-39.4 -24.3,-34.6 z"
     fill="#0000ff"
     id="path306"
     clip-path="url(#_clipPath_N1qCNidVSW0YPI4we8BfCWh8WKhpr5I9)" />
  <path
     d="m 120.2,902 c -9.4,5.8 -9.5,18.9 -0.1,24.3 2.1,1.2 3.9,2.5 3.9,2.9 0,0.3 -1.3,2 -3,3.6 -3.7,3.7 -3.9,7.4 -0.5,10.7 3,3.1 6.6,3.2 10.1,0.2 3.7,-3.2 3.7,-7.8 0,-11.6 l -2.8,-2.9 3.6,-1.2 c 4.5,-1.4 9.1,-6.7 10,-11.4 0.9,-5 -2.2,-11.9 -6.6,-14.6 -4.2,-2.6 -10.4,-2.6 -14.6,0 z"
     fill="#0000ff"
     id="path308"
     clip-path="url(#_clipPath_N1qCNidVSW0YPI4we8BfCWh8WKhpr5I9)" />
  <path
     d="m 436.4,906.4 c -9.9,4.3 -11.9,16.4 -3.8,23.5 2.9,2.6 4.3,3.1 8.4,3.1 5.6,0 6.4,1.4 2.9,4.6 -3.4,3 -6.9,11.4 -6.8,16.4 0.1,13.8 10.3,24 24.1,24 14.1,0 23.8,-10.1 23.8,-24.6 -0.1,-6.6 -2.8,-12.1 -8.4,-17.1 -5.7,-5 -11.9,-6.8 -20.2,-5.7 l -5.7,0.7 2.2,-3.7 c 4.7,-7.6 2.2,-16.9 -5.4,-20.6 -4.8,-2.3 -6.8,-2.4 -11.1,-0.6 z"
     fill="#0000ff"
     id="path310"
     clip-path="url(#_clipPath_N1qCNidVSW0YPI4we8BfCWh8WKhpr5I9)" />
  <path
     d="m 996.9,916.9 c -1.6,1.6 -2.9,4 -2.9,5.3 0,3.1 3.4,8.5 5.9,9.3 3,0.9 2.6,2 -1.4,4.5 -8.4,5.2 -9.3,18 -1.8,24 7.9,6.2 20.5,2.1 23.2,-7.5 2.1,-7.7 -2.7,-16.4 -9.9,-18 -3.7,-0.8 -3.8,-2.1 -0.5,-5.1 1.8,-1.7 2.5,-3.3 2.5,-6.1 -0.1,-8.6 -9.1,-12.4 -15.1,-6.4 z"
     fill="#000000"
     id="path312"
     clip-path="url(#_clipPath_N1qCNidVSW0YPI4we8BfCWh8WKhpr5I9)" />
  <path
     d="m 405.4,934.9 c -3.3,2 -7.4,6.7 -7.4,8.5 0,0.6 -0.4,1.7 -0.9,2.5 -0.8,1.2 -1.4,0.8 -3.5,-1.6 -3.1,-3.7 -6.9,-4.8 -10.8,-3.2 -5.7,2.4 -7.2,10.4 -2.7,14.5 3,2.7 2.3,3.4 -3.6,3.4 -23.4,0 -40.6,12.5 -50.4,36.4 -0.6,1.6 -1.4,2.6 -1.7,2.4 -0.2,-0.3 -0.9,-3.4 -1.5,-6.9 -0.6,-3.5 -2.4,-8.9 -4.1,-12.1 -3.3,-6.2 -3.3,-7.7 0,-5.9 1.2,0.6 4.2,1.1 6.9,1.1 8.2,0 13.9,-5 15,-13 0.6,-4.5 1.4,-4.8 5,-2 1.7,1.3 4.1,2 6.9,2 3.5,0 4.6,-0.5 6.2,-2.8 5.3,-7.4 1.5,-16.2 -7,-16.2 -3,0 -4.6,0.7 -6.9,2.9 -1.6,1.6 -2.9,3.9 -2.9,5 0,2.9 -1.7,2.6 -4.5,-0.8 -3.4,-3.9 -7.6,-5.4 -13.6,-4.9 -9.2,0.9 -15.3,9.8 -12.9,18.9 0.6,2.3 1,4.3 0.7,4.5 -0.2,0.2 -3.5,-1.2 -7.4,-3.2 -22.6,-11.6 -49.2,1.9 -52.8,26.8 -0.4,2.7 -1.1,4.8 -1.5,4.8 -0.4,0 -1.7,-2.6 -2.9,-5.8 -2.4,-6.8 -8.5,-16.5 -12.9,-20.6 -3.7,-3.4 -3.3,-4.6 1.3,-4.6 4.3,0 8.5,-4.7 8.5,-9.4 0,-6.3 -6.4,-9.5 -14.2,-7.2 -2.7,0.8 -2.8,0.7 -2.8,-3.2 0,-7.2 -6.5,-11.9 -13.2,-9.3 -3,1.1 -5.8,5.7 -5.8,9.5 0,3.1 4.2,8.2 7.5,9 1.4,0.4 4.1,0 6.1,-0.9 2.1,-0.8 3.8,-1.4 3.9,-1.3 0.4,0.5 1.4,10.8 1.1,10.8 -0.2,0 -2.5,-1 -5.2,-2.2 -22.8,-10 -48,-4 -62.7,15.1 l -4.2,5.4 -0.7,-6.7 c -0.3,-3.7 -1.6,-8.5 -2.7,-10.7 -1.7,-3.1 -1.8,-4.1 -0.7,-4.5 0.7,-0.3 1.7,-0.4 2.2,-0.3 4.1,0.7 8.4,-2.6 8.4,-6.5 0,-3.7 -3.2,-6.9 -6.8,-6.9 -4.5,0 -7.2,2.8 -7.2,7.5 0,2.1 -0.2,3.8 -0.5,3.8 -0.3,0 -2.3,-0.9 -4.3,-1.9 -11.3,-5.8 -24.2,-1.8 -29.7,9.2 -7.5,15.1 2.7,31.7 19.5,31.7 6.2,0 10.4,-1.7 15.5,-6.1 l 3.8,-3.4 -0.7,4 c -2.6,14.8 -2.7,16 -1.6,23.4 2.1,14 9.3,25.5 21.4,34.4 5.6,4 6.7,5.2 5.1,5.5 -1.1,0.2 -3.3,1.6 -4.9,3 -2,1.9 -3,2.3 -3.3,1.4 -1.1,-2.9 -7,-9.7 -10.1,-11.5 -8,-4.7 -16.6,-4.3 -24.4,0.9 -2.7,1.9 -5.2,3.4 -5.4,3.4 -0.2,0 -0.7,-1.4 -1.2,-3.2 -1.1,-4.5 -5.4,-7.5 -8.9,-6.2 -1.5,0.5 -3.4,2.1 -4.2,3.6 -3.2,5.7 2.6,12.1 9,9.9 3.3,-1.1 3.3,-1.1 1.8,5.9 -3,13.8 7.6,26.9 21.7,27 10.6,0 20.6,-8.4 22,-18.6 0.9,-6.6 1,-6.7 4.3,-4.9 5.6,2.8 11,-2.1 8.1,-7.5 -0.6,-1.2 -1,-2.4 -0.7,-2.6 0.3,-0.3 3.2,0.2 6.5,1 6.8,1.8 18.6,2 25.2,0.5 12.9,-3 26.5,-13.5 32.8,-25.5 3.3,-6.3 6.2,-16.6 6.2,-22.2 0,-1.7 0.4,-3.2 0.8,-3.2 0.5,0 2.1,2.7 3.7,6.1 3.4,7.1 11.4,15 18.2,18.2 3.9,1.8 6.7,2.2 14.3,2.2 8.7,0 10.1,-0.3 16.2,-3.3 7.7,-3.8 12.5,-8.7 17,-17.4 l 3.2,-6.3 0.8,7 c 1.1,9.3 3.3,16.9 6.9,23.2 1.6,2.9 2.9,5.6 2.9,5.9 0,0.3 -1.6,0.3 -3.5,0 -2.9,-0.6 -3.9,-0.3 -6,1.8 -4.6,4.6 -1.9,11.6 4.4,11.6 3.4,0 7.1,-3.9 7.1,-7.6 0,-1.3 0.3,-2.4 0.6,-2.4 0.3,0 2.8,1.8 5.4,4 16,13.4 37.6,15.8 56.5,6.3 6.9,-3.6 16.7,-13.3 20.5,-20.5 4.4,-8.1 6,-14.7 6,-24.4 0,-21 -12.7,-39.5 -32.3,-46.9 -2.6,-1 -5,-2.2 -5.3,-2.6 -0.2,-0.5 0.9,-1.5 2.6,-2.4 1.7,-0.9 3.6,-2.7 4.2,-4 0.6,-1.4 1.5,-2.5 1.9,-2.5 0.4,0 1.9,2 3.3,4.4 7.8,13.3 28,7.9 28,-7.4 0,-11.2 -12.7,-18.8 -22,-13.1 z"
     fill="#0000ff"
     id="path314"
     clip-path="url(#_clipPath_N1qCNidVSW0YPI4we8BfCWh8WKhpr5I9)" />
  <path
     d="m 757.6,936.1 c -3.7,4.3 -3.4,8.3 0.8,12.5 1.9,1.9 3.1,3.6 2.7,3.8 -0.4,0.3 -3.8,1.2 -7.5,2 -17,4 -30.4,16 -36.2,32.5 -3.1,8.7 -3.3,22 -0.4,31.3 3.4,11 11.8,22 20.8,27.4 1.8,1 3.2,2.1 3.2,2.5 0,0.4 -5.1,0.6 -11.2,0.5 -8,0 -12.8,0.4 -16.5,1.6 -4.2,1.4 -5.3,1.4 -5.3,0.4 0,-0.8 0.7,-1.9 1.6,-2.7 2.3,-1.9 5.3,-8.2 6,-12.8 1.6,-9.9 -5.9,-21.3 -15.9,-24 -5,-1.4 -5.9,-2.6 -2.9,-3.5 5.1,-1.6 11.3,-6.8 14.1,-11.8 4.5,-7.7 4.4,-15.2 -0.4,-24.3 l -3.4,-6.6 4.4,0.6 c 6,0.9 9.7,-0.1 13.4,-3.7 4.6,-4.5 5.8,-10 3.4,-15.7 -2.4,-5.9 -7,-9.1 -13.2,-9.1 -11,0 -18.2,10.8 -13.6,20.4 2.1,4.4 1.6,5.2 -2.6,3.7 -4.6,-1.6 -14.3,-1.4 -18.7,0.5 -16.3,6.8 -19.7,29.2 -6.1,40.8 2.2,1.8 6,4 8.6,4.8 5.6,1.8 6.4,3.2 2.6,4.6 -8,2.7 -13.7,11.3 -13.7,20.7 0,13.2 9,22 22.7,21.9 3.7,0 6.7,0.1 6.7,0.3 0,0.1 -3.3,3.5 -7.3,7.5 -11,11 -15.7,21.8 -15.7,35.8 0,12.6 4.5,23.9 13.3,33.6 17.5,19.2 46.3,21.5 67.2,5.4 2.9,-2.2 5.5,-4 6,-4 0.4,0 0.5,1.4 0.1,3 -2,10 10,16.2 17.3,8.9 3.6,-3.6 4,-7 1.1,-11.7 -2.4,-4 -6.2,-5.5 -11.2,-4.7 -2.1,0.4 -3.8,0.4 -3.8,0.2 0,-0.3 1.6,-3.6 3.5,-7.4 1.9,-3.7 3.9,-8.8 4.4,-11.3 1.6,-6.7 1.3,-18.5 -0.5,-25.8 -0.9,-3.5 -1.4,-6.6 -1.1,-6.8 0.3,-0.3 1.9,0.2 3.6,1 10,5.2 20.9,-3.2 18,-13.8 -3.7,-13.2 -23.9,-10.4 -23.9,3.4 0,2 -0.5,3 -1.5,3 -0.8,0 -1.5,-0.4 -1.5,-0.8 0,-1.3 -10.1,-11.3 -14.2,-14 -2.1,-1.3 -3.8,-2.8 -3.8,-3.2 0,-0.4 4.6,-0.5 10.3,-0.2 7.9,0.3 11.7,0 16.2,-1.3 7.9,-2.2 14.7,-5.8 19.4,-10 4.8,-4.4 6.1,-4.4 6.1,-0.1 0,5 3.3,8.6 7.9,8.6 8.3,0 11.9,-7.6 6.7,-13.7 -2.1,-2.5 -3,-2.8 -7.6,-2.6 l -5.1,0.2 2.4,-4.2 c 11.7,-20.3 9.3,-43.4 -6.4,-61.1 l -5,-5.5 2.8,-0.7 c 4,-1 5.3,-2.3 5.3,-5.5 0,-3.3 -2.3,-5.9 -5.4,-5.9 -3.1,0 -5.6,3 -5.6,6.8 0,1.8 -0.2,3.2 -0.4,3.2 -0.2,0 -3.3,-1.4 -6.8,-3 -3.6,-1.7 -9.3,-3.5 -12.6,-4.1 -6.5,-1.2 -7.5,-2.1 -4.1,-3.9 1.1,-0.7 2.7,-2.7 3.5,-4.6 4,-9.5 -8.4,-17.2 -15,-9.3 z"
     fill="#0000ff"
     id="path316"
     clip-path="url(#_clipPath_N1qCNidVSW0YPI4we8BfCWh8WKhpr5I9)" />
  <path
     d="m 544.3,938.2 c -4.3,1.1 -6.3,4.3 -6.3,10 0,5.2 -0.8,5.7 -5,3.3 -1.4,-0.8 -4.7,-1.4 -7.4,-1.5 -13,-0.1 -21.1,12.7 -15.7,24.6 3.2,7.1 11.1,11.2 18.6,9.8 l 3.6,-0.6 -0.7,3.9 c -0.7,4.7 1.2,7.3 5.5,7.3 7.1,0 6.9,-8.8 -0.2,-11.3 -1.7,-0.6 -1.5,-1.1 1.7,-4.9 4.9,-5.7 5.5,-9.2 3,-19.9 -0.6,-2.6 -0.5,-2.6 4.4,-2.1 6.2,0.5 9.8,-1.5 11.1,-6.5 1.1,-3.7 -0.4,-9.3 -2.8,-10.8 -2.6,-1.5 -6.8,-2.1 -9.8,-1.3 z"
     fill="#0000ff"
     id="path318"
     clip-path="url(#_clipPath_N1qCNidVSW0YPI4we8BfCWh8WKhpr5I9)" />
  <path
     d="m 1010.5,969.5 c -3.6,3.6 -3.4,8.8 0.5,12.7 2.7,2.6 3.6,3 6.8,2.5 7.6,-1.2 10.5,-8.8 5.6,-14.6 -3.4,-4.1 -9.2,-4.4 -12.9,-0.6 z"
     fill="#000000"
     id="path320"
     clip-path="url(#_clipPath_N1qCNidVSW0YPI4we8BfCWh8WKhpr5I9)" />
  <path
     d="m 949,971.3 c -23.6,8 -37.5,30.7 -34,55.5 0.7,4.6 1,8.5 0.8,8.8 -0.3,0.2 -2.4,-2 -4.6,-4.9 -4.3,-5.5 -9,-9.7 -15.5,-13.6 -3.8,-2.3 -4.1,-4.1 -0.7,-4.1 1,0 3.2,-1.2 4.9,-2.6 2.6,-2.1 3.1,-3.3 3.1,-6.9 0,-3.6 -0.5,-4.8 -3.1,-6.9 -4.3,-3.6 -9.1,-3.5 -13,0.3 -3.3,3.4 -3.7,6.6 -1.3,11.7 0.9,1.9 1.5,3.7 1.3,3.9 -0.3,0.2 -2.2,0 -4.4,-0.5 -6.2,-1.5 -19.4,-1.2 -26,0.5 -8.4,2.2 -15.1,6.1 -22,13 -12,11.8 -17.2,27.4 -14.8,44.2 0.6,4.3 0.9,8 0.7,8.3 -0.3,0.2 -1.3,-0.1 -2.2,-0.8 -4.1,-3 -6.6,-3.4 -10.7,-2.1 -11.1,3.9 -8.7,19.9 3,19.9 5.4,0 9.1,-2.8 10.5,-8.1 0.6,-2.1 1.3,-3.9 1.5,-3.9 0.3,0 2.3,2.9 4.6,6.5 4.1,6.5 11.1,13.5 16.2,16.1 2.8,1.5 3.7,4.4 1.4,4.4 -2.3,0 -4.7,3.5 -4.7,6.8 0,1.8 -0.1,3.2 -0.2,3.2 -0.2,0 -2.7,-0.9 -5.5,-2 -14.8,-5.6 -29.4,-2.3 -39.5,8.8 -6.5,7.2 -8.8,13 -8.8,22.1 0,10.7 2.7,17.8 9.3,24.8 2.7,2.9 7.5,6.5 10.6,8 4.9,2.4 6.8,2.8 14.6,2.8 7.8,0 9.7,-0.4 14.7,-2.8 21.5,-10.5 26.9,-37.4 11.1,-55 -3.5,-3.9 -3.6,-5.7 -0.3,-5.7 3.4,0 5.3,-2.9 4.6,-7.2 -0.3,-2.1 -0.4,-3.8 0,-3.8 0.3,0 3.1,0.7 6.2,1.6 7.8,2.3 24.6,1.5 32.1,-1.5 2.9,-1.2 5.6,-2 5.9,-1.7 0.2,0.3 -1.3,2.6 -3.5,5 -2.4,2.8 -4.6,6.5 -5.3,9.3 -1.8,6.5 -2.4,6.9 -4.9,3.4 -4.8,-6.7 -14.6,-5.9 -17.7,1.5 -2.8,6.7 1,13.1 8.4,14.1 4,0.5 4.5,0.3 8.2,-3.6 2.1,-2.2 4.1,-4.1 4.4,-4.1 0.2,0 1,1.6 1.6,3.6 1.6,4.7 7.3,11 12.2,13.5 11.9,6.1 25.8,1.3 32,-11 1.5,-3 2.9,-5.6 3.2,-5.8 0.2,-0.2 1.9,1.2 3.9,3.2 4.3,4.3 8.3,4.6 12.4,1.1 2.2,-1.9 2.8,-3.2 2.8,-6.6 0,-9 -11,-12.3 -16.3,-4.8 -2,2.8 -2.9,2.2 -4.2,-3.1 -1.7,-7 -6.1,-12.5 -12.6,-15.7 -5,-2.4 -6.2,-2.6 -13.5,-2.1 l -8.1,0.5 7,-6.7 c 3.8,-3.7 8.1,-8.9 9.7,-11.4 3.1,-5.3 4.2,-5.8 5.1,-2.2 0.8,3.2 4.9,6.5 8.1,6.5 3.2,0 8.3,-5.1 8.3,-8.3 0,-3.2 -3.3,-7.3 -6.5,-8.1 -1.5,-0.4 -3.7,0 -5.6,1 -1.7,0.8 -3.3,1.3 -3.6,1.1 -0.2,-0.3 0.1,-4.1 0.8,-8.6 1,-6.4 1,-9.8 0,-16.2 -0.7,-4.5 -1,-8.4 -0.6,-8.7 0.3,-0.3 1.3,0.5 2.3,1.9 9.7,13.9 25,21.9 41.6,21.9 14.3,0 26,-4.8 35.9,-14.7 22.5,-22.5 18.4,-60.9 -8.3,-77.8 -12.1,-7.7 -29.6,-9.8 -43,-5.2 z"
     fill="#0000ff"
     id="path322"
     clip-path="url(#_clipPath_N1qCNidVSW0YPI4we8BfCWh8WKhpr5I9)" />
  <path
     d="m 482,985.9 c -7.3,2.3 -11.5,4.6 -17.5,9.3 l -5,4 -0.6,-3.1 c -0.9,-4.3 -2.7,-6.1 -5.9,-6.1 -5.7,0 -8.2,7.5 -3.6,10.6 1.4,0.8 3.3,1.5 4.3,1.4 3.4,-0.4 3.4,0 -0.1,6.3 -5,9 -6.9,17.2 -6.3,27.7 0.6,11 2.9,17.7 9.2,26.4 14.1,19.7 40.7,26.1 62.4,15.2 2.7,-1.4 5.1,-2.3 5.4,-2 0.2,0.3 0.2,2.5 -0.1,4.9 -0.3,3.1 0,5.2 1.2,6.9 2.1,3.4 2.1,3.6 -1.1,3.6 -3.8,0 -9.1,3.4 -10.3,6.6 -3.6,9.3 5,18.1 14,14.4 6.2,-2.6 8.3,-11 4.1,-16.9 -1.7,-2.3 -1.9,-3.2 -0.9,-3.5 6.2,-1.7 7.5,-2.4 9.2,-5.7 1.7,-3.2 1.8,-4 0.6,-6.8 -1.4,-3.5 -5.5,-6.1 -9.5,-6.1 -1.4,0 -2.5,-0.2 -2.5,-0.5 0,-0.3 2,-3 4.4,-6 9.1,-11.1 12.6,-20.4 12.6,-33.2 0,-13.8 -4.6,-24.9 -14.5,-34.9 -9.8,-10 -20.9,-14.4 -35.4,-14.3 -5.4,0 -10.7,0.7 -14.1,1.8 z"
     fill="#0000ff"
     id="path324"
     clip-path="url(#_clipPath_N1qCNidVSW0YPI4we8BfCWh8WKhpr5I9)" />
  <path
     d="m 132,1000.8 c -4.1,1.2 -5.2,6.8 -2,9.7 2.7,2.4 2.6,2.9 -1.5,4.8 -9.5,4.5 -10.2,19.3 -1.2,24.7 3.8,2.4 10.6,2.6 14.7,0.5 6.5,-3.4 9.1,-13.4 5,-20.1 -1.2,-1.8 -4,-4.2 -6.5,-5.4 -4.9,-2.4 -5.3,-3.1 -3,-5 4.1,-3.4 -0.3,-10.9 -5.5,-9.2 z"
     fill="#0000ff"
     id="path326"
     clip-path="url(#_clipPath_N1qCNidVSW0YPI4we8BfCWh8WKhpr5I9)" />
  <path
     d="m 565.3,1034.9 c -9.4,3.5 -15.7,9.5 -20.2,19.1 -2,4.4 -2.5,7 -2.6,13.5 0,7.1 0.4,8.8 3.3,14.7 7.7,15.8 25.6,23.4 41.9,17.9 3.4,-1.2 6.7,-2.1 7.3,-2.1 0.6,0 -1.1,2.9 -3.8,6.4 -2.7,3.5 -6.2,9.6 -7.7,13.5 -1.6,3.9 -3.1,6.8 -3.5,6.4 -0.4,-0.4 -1.2,-2.6 -1.8,-4.9 -4,-14 -18.7,-20.4 -32,-13.8 -12,6 -15.6,20.6 -7.9,32.1 9.7,14.3 31.8,12.3 39,-3.4 1.5,-3.3 2.7,-2.8 2.7,0.9 0,5.6 2.9,17 5.6,22.6 1.4,2.9 2.4,5.5 2.2,5.8 -0.3,0.2 -2.3,-0.3 -4.6,-1.2 -5.4,-2.2 -10.4,-1.2 -14.9,3 -2.9,2.7 -3.6,4.1 -4,8.2 -0.9,9.2 4.7,15.4 13.9,15.4 8.2,0 14.6,-7.4 13.4,-15.7 -0.7,-5.4 0.3,-5.5 6.2,-0.2 14.9,13.1 37,15.6 55.4,6.3 7.1,-3.6 16.9,-13.2 20.7,-20.3 17.7,-33.3 -5.7,-73 -43.4,-73.3 -8.4,-0.1 -16.9,1.8 -23.8,5.4 -4.7,2.4 -5.7,1.7 -3,-2 5.7,-7.7 6.8,-11.2 6.8,-21.7 0,-9 -0.3,-10.5 -2.8,-15.3 -6.2,-11.7 -16.5,-18.3 -29.7,-18.9 -5.6,-0.3 -8.8,0.1 -12.7,1.6 z"
     fill="#0000ff"
     id="path328"
     clip-path="url(#_clipPath_N1qCNidVSW0YPI4we8BfCWh8WKhpr5I9)" />
  <path
     d="m 296,1035.7 c -9.7,5 -10.8,18.1 -2,24.3 3.8,2.7 3.1,4 -2.3,4 -5.7,0 -14.5,2.4 -20.9,5.6 -6.8,3.4 -16.3,12.5 -20,19.1 -1.7,2.9 -3.4,5.5 -3.8,5.8 -0.5,0.3 -1.2,-1.6 -1.6,-4.2 -0.9,-6.6 -1.8,-8.5 -5.6,-12.8 -7.9,-9 -20.3,-10 -30.1,-2.3 -3.4,2.6 -3.8,2.7 -4.3,1.1 -1.5,-4.9 -2.6,-6.4 -4.9,-7.3 -7.4,-2.8 -12.4,8.3 -5.5,12 1.3,0.7 3.7,0.9 5.7,0.5 l 3.5,-0.6 -0.9,3.3 c -2.5,10.1 1,20.3 8.8,25.5 4.7,3.1 4.9,4.3 0.9,4.3 -1.7,0 -4.7,0.7 -6.7,1.5 -5.4,2.3 -6.4,2 -5.2,-1.2 3.4,-9 -7.4,-16.1 -14.9,-9.8 -1.7,1.4 -3.2,2.5 -3.5,2.5 -0.2,0 -0.7,-1.5 -1.1,-3.2 -0.4,-1.8 -1.8,-5 -3.1,-7 -1.4,-2.1 -2.5,-3.9 -2.5,-4.2 0,-0.2 1.8,-0.6 3.9,-1 4.5,-0.7 9.1,-5.3 9.1,-9.2 0,-3.3 -2.5,-8.1 -4.9,-9.4 -1.1,-0.5 -3.5,-1 -5.4,-1 -7.4,0 -11.7,7.6 -8.3,14.6 2.1,4.6 2.1,4.6 -1.7,3.9 -5.4,-1 -11.1,1 -15,5.4 -12.1,13.4 2.8,33.1 19.1,25.4 1.9,-0.9 4.9,-3.6 6.5,-5.9 2.9,-4.1 4.7,-4.9 4.7,-1.9 0,0.7 1.4,2.5 3.2,4 2.5,2.1 3.9,2.6 6.4,2.2 1.8,-0.3 3.4,-0.3 3.7,0 0.3,0.2 -0.8,2.9 -2.4,6 -10.2,19.4 8.7,39.3 29.4,30.8 1.6,-0.7 1.7,-0.3 1.1,4.3 -0.6,4.8 -0.4,5.3 2.4,8.2 4.1,4 8.3,4.1 12.3,0.1 3.9,-4 3.9,-8.2 0,-12.2 -2.2,-2.1 -3.9,-2.9 -6.5,-2.9 -2,0 -3.6,-0.3 -3.6,-0.7 0,-0.4 1.2,-2.5 2.8,-4.7 2.4,-3.5 2.7,-4.8 2.7,-12.1 0,-7.2 -0.3,-8.6 -2.8,-12.3 -1.5,-2.3 -4.5,-5.3 -6.7,-6.7 -4.4,-2.8 -4.5,-4.5 -0.2,-4.5 4,-0.1 10.3,-3.3 14.1,-7.4 1.9,-2 3.8,-3.6 4.2,-3.6 0.5,0 0.5,3.7 0.2,8.2 -0.6,9.7 1,17.5 5.6,26.5 11,21.7 36.8,31.9 60.4,23.9 4.2,-1.4 8.2,-2.6 8.7,-2.6 0.5,0 -0.2,2.1 -1.5,4.6 -1.4,2.6 -2.5,6 -2.5,7.5 0,3.6 -1.3,3.6 -5.2,0.4 -4,-3.4 -8,-3.2 -12,0.4 -4.3,3.8 -4.6,9.8 -0.7,13.7 4.9,4.8 13.8,2.8 16.1,-3.7 1.3,-3.7 2.2,-3.7 4.7,0.4 2.8,4.5 9.4,8.1 15.2,8.1 16.2,0 23.9,-20.3 11.9,-31.3 l -3.1,-2.8 3.5,-2.1 c 2.8,-1.7 3.6,-2.8 3.6,-5 0,-3 -2.6,-6.2 -5.1,-6.2 -0.8,0 -2.5,0.7 -3.8,1.6 -2,1.5 -2.3,2.2 -1.7,6 l 0.6,4.4 h -7 -7.1 l 5.7,-6.7 c 11,-12.9 15.3,-28.2 12.1,-43 -2.4,-11 -6,-17.8 -13.6,-25.4 -6.5,-6.5 -12.7,-10.4 -20.6,-12.9 -5.9,-1.9 -6.1,-2.5 -1.2,-4.9 5.1,-2.5 7.6,-5.6 8.4,-10.6 1.7,-10.8 -10.1,-19.7 -19.7,-14.8 z"
     fill="#0000ff"
     id="path330"
     clip-path="url(#_clipPath_N1qCNidVSW0YPI4we8BfCWh8WKhpr5I9)" />
  <path
     d="m 656.5,1042 c -2.5,1 -5.1,3.9 -5.9,6.7 -0.9,2.8 -1.8,2.9 -4.2,0.2 -4.7,-5.2 -13.3,-6.5 -19.2,-2.9 -4.4,2.7 -7.6,9.8 -6.7,14.8 1.4,7.5 7,12.2 14.5,12.2 7.7,0 13.3,-4.9 14.6,-12.9 0.7,-4.4 1.7,-5 4.5,-2.5 2.7,2.4 8.6,2 11.5,-0.7 3.3,-3.1 3.4,-9.7 0.2,-12.6 -2.8,-2.5 -6.6,-3.4 -9.3,-2.3 z"
     fill="#0000ff"
     id="path332"
     clip-path="url(#_clipPath_N1qCNidVSW0YPI4we8BfCWh8WKhpr5I9)" />
  <path
     d="m 416.4,1065.1 c -4.5,1.3 -10,7.8 -10.9,12.8 -0.9,5.3 2.5,12.6 7.4,15.8 4.4,3 12.3,3.1 16.9,0.3 3.8,-2.3 7.2,-7.5 7.2,-11 0,-1.4 0.4,-3.1 0.9,-3.9 0.7,-1.1 1.3,-1.1 3.2,0.3 3.1,2.1 4.5,2 6.9,-0.4 2.7,-2.7 2.6,-6.5 -0.2,-8.4 -3.2,-2.3 -4.6,-2 -7.8,1.4 l -2.8,3 -2.7,-3.6 c -2.8,-3.7 -9.4,-7.4 -13,-7.3 -1.1,0 -3.4,0.5 -5.1,1 z"
     fill="#0000ff"
     id="path334"
     clip-path="url(#_clipPath_N1qCNidVSW0YPI4we8BfCWh8WKhpr5I9)" />
  <path
     d="m 371.1,1067 c -2.4,1.1 -5.8,3.6 -7.6,5.6 -3.4,3.7 -5.5,3.8 -5.5,0.3 0,-3.3 -4.4,-6.9 -8.5,-6.9 -4.2,0 -9.5,4.4 -9.5,8 0,7.1 8.4,12.4 13.6,8.5 3.5,-2.7 4.4,-1.9 4.4,4.2 0,7.3 2.5,12.7 7.8,17.5 11.3,10.2 27.6,6.4 35.3,-8.2 2,-4 1.6,-13.8 -0.9,-18.7 -5.5,-10.5 -18.4,-15.1 -29.1,-10.3 z"
     fill="#0000ff"
     id="path336"
     clip-path="url(#_clipPath_N1qCNidVSW0YPI4we8BfCWh8WKhpr5I9)" />
  <path
     d="m 984.1,1081.6 c -4.2,3.5 -4.3,8.4 -0.2,12.5 3.7,3.6 7.9,3.8 11.8,0.5 2.2,-1.9 2.8,-3.2 2.8,-6.6 0,-8 -8.2,-11.6 -14.4,-6.4 z"
     fill="#000000"
     id="path338"
     clip-path="url(#_clipPath_N1qCNidVSW0YPI4we8BfCWh8WKhpr5I9)" />
  <path
     d="m 955.6,1082 c -6.6,2 -11.2,9.4 -10.1,16.3 0.7,3.9 0.7,4 -2.1,3.4 -5.7,-1.1 -10,3.5 -7.5,8.1 2.4,4.6 9.3,3 10.7,-2.3 0.7,-3 0.8,-3 4.5,-0.4 11.9,8.4 27.3,-4.3 21,-17.3 -3.1,-6.4 -10.1,-9.7 -16.5,-7.8 z"
     fill="#000000"
     id="path340"
     clip-path="url(#_clipPath_N1qCNidVSW0YPI4we8BfCWh8WKhpr5I9)" />
  <path
     d="m 453,1089.1 c -8.9,1.5 -19.6,7.3 -26.7,14.5 -15.3,15.5 -18.7,37.8 -8.8,58.1 2.9,5.8 2.8,7.1 -0.3,5.4 -1.2,-0.6 -3.9,-1.1 -6.1,-1.1 -3.3,0 -4.9,0.7 -7.8,3.3 -3.1,2.9 -3.6,4 -3.7,7.8 -0.2,8.5 6.8,14.3 14.5,12 5.6,-1.7 8.9,-6.2 8.9,-12.2 0,-2.7 0.3,-4.9 0.6,-4.9 0.3,0 2.7,1.8 5.2,4 13.8,12.2 33.7,15.7 51.4,9 6.5,-2.4 16.9,-9.6 19.4,-13.5 2.1,-3.3 4,-3.2 4.7,0.3 0.8,3.9 5.1,5.8 8.2,3.8 2.9,-1.9 3.9,-4.9 2.5,-7.6 -1.1,-2.1 -5.1,-3.6 -7.5,-2.7 -2.6,1 -2.5,-1 0.1,-6.7 2.8,-6.1 4,-6.8 5.4,-3.2 1.2,3.3 4.8,5.6 8.7,5.6 3.9,0 4.1,1 1.1,5 -1.3,1.8 -2.3,4.9 -2.6,8.2 -0.4,6.1 1.9,10.6 7.7,14.5 13.2,8.9 30.8,-8.6 21.9,-21.7 -4.1,-6 -7.1,-7.5 -14.9,-7.4 -6,0 -6.9,-0.2 -6.3,-1.5 0.4,-0.9 0.9,-3.4 1.2,-5.6 0.3,-3.2 -0.1,-4.4 -2,-6.2 -3.8,-3.6 -7.7,-3.9 -12,-0.9 l -3.8,2.5 v -7.7 c 0,-28 -19.4,-49.3 -47,-51.5 -3.6,-0.3 -9,-0.1 -12,0.4 z"
     fill="#0000ff"
     id="path342"
     clip-path="url(#_clipPath_N1qCNidVSW0YPI4we8BfCWh8WKhpr5I9)" />
  <path
     d="m 373.9,1136.3 c -5.3,3.6 -7.9,8.2 -7.9,14.1 0.1,2.8 0.7,6.2 1.5,7.6 2.1,3.6 1.9,3.8 -3,3.8 -6,-0.1 -9.5,2.9 -9.5,8.3 0,8.4 9.1,12.3 14.9,6.5 2.2,-2.2 2.6,-3.4 2.4,-7.7 -0.2,-4.5 0,-5 1.5,-4.4 12.6,5.2 24.2,-1.8 24.2,-14.6 0,-8.6 -7.4,-15.9 -16,-15.9 -3.2,0 -5.8,0.7 -8.1,2.3 z"
     fill="#0000ff"
     id="path344"
     clip-path="url(#_clipPath_N1qCNidVSW0YPI4we8BfCWh8WKhpr5I9)" />
  <path
     d="m 690.1,1144.6 c -5.6,4.7 -3.7,13 3.4,15.4 3.8,1.3 4.1,2 2.3,5 -1.1,1.7 -1,2.5 0.2,4.8 1.7,3 4.8,3.9 8,2.2 3.2,-1.7 2.4,-8 -1.2,-9.8 l -2.7,-1.3 2.5,-3.6 c 3.3,-4.9 3.1,-8.7 -0.5,-12.4 -3.7,-3.7 -7.9,-3.8 -12,-0.3 z"
     fill="#0000ff"
     id="path346"
     clip-path="url(#_clipPath_N1qCNidVSW0YPI4we8BfCWh8WKhpr5I9)" />
  <path
     d="m 861.8,1155.5 c -6,3.4 -8.4,11.4 -5.2,18.1 5.2,10.9 22.1,9.2 25.4,-2.5 1.3,-4.8 -0.2,-10 -4,-13.6 -3.6,-3.5 -11.8,-4.5 -16.2,-2 z"
     fill="#000000"
     id="path348"
     clip-path="url(#_clipPath_N1qCNidVSW0YPI4we8BfCWh8WKhpr5I9)" />
  <path
     d="m 251.7,1172.8 c -2.3,2.5 -2.1,5.8 0.3,8.2 2.4,2.4 4.8,2.5 7.8,0.4 2.6,-1.8 3,-6.5 0.6,-8.8 -2.1,-2.2 -6.7,-2 -8.7,0.2 z"
     fill="#000000"
     id="path350"
     clip-path="url(#_clipPath_N1qCNidVSW0YPI4we8BfCWh8WKhpr5I9)" />
</svg>
